<svg width="64" height="64" viewBox="0 0 64 64" fill="none" xmlns="http://www.w3.org/2000/svg">
<path fill-rule="evenodd" clip-rule="evenodd" d="M48 32.3637C48 31.2292 47.8961 30.1383 47.7032 29.091H32.3265V35.2801H41.1132C40.7347 37.2801 39.5844 38.9746 37.8553 40.1092V44.1237H43.1317C46.2189 41.3382 48 37.2364 48 32.3637Z" fill="#4285F4"/>
<path fill-rule="evenodd" clip-rule="evenodd" d="M32.3265 47.9999C36.7347 47.9999 40.4304 46.5673 43.1317 44.1237L37.8553 40.1092C36.3933 41.0692 34.5232 41.6363 32.3265 41.6363C28.0742 41.6363 24.475 38.8218 23.1911 35.04H17.7366V39.1854C20.423 44.4145 25.9444 47.9999 32.3265 47.9999Z" fill="#34A853"/>
<path fill-rule="evenodd" clip-rule="evenodd" d="M23.1911 35.04C22.8646 34.08 22.679 33.0546 22.679 32.0001C22.679 30.9455 22.8646 29.9201 23.1911 28.9601V24.8146H17.7366C16.6308 26.9746 16 29.4182 16 32.0001C16 34.5819 16.6308 37.0254 17.7366 39.1854L23.1911 35.04Z" fill="#FBBC05"/>
<path fill-rule="evenodd" clip-rule="evenodd" d="M32.3265 22.3636C34.7236 22.3636 36.8757 23.1709 38.5677 24.7564L43.2505 20.1673C40.423 17.5855 36.7273 16 32.3265 16C25.9444 16 20.423 19.5855 17.7366 24.8146L23.1911 28.9601C24.475 25.1783 28.0742 22.3636 32.3265 22.3636Z" fill="#EA4335"/>
</svg>
