<svg width="35" height="26" viewBox="0 0 35 26" fill="none" xmlns="http://www.w3.org/2000/svg">
<path d="M6.85023 25.8531V24.1317C6.86033 23.9869 6.83944 23.8417 6.78897 23.7056C6.73849 23.5695 6.65958 23.4458 6.5575 23.3426C6.45542 23.2395 6.33252 23.1592 6.19699 23.1073C6.06146 23.0554 5.91643 23.033 5.77155 23.0416C5.58195 23.0292 5.39249 23.0679 5.22295 23.1537C5.0534 23.2395 4.90997 23.3692 4.8076 23.5293C4.71431 23.374 4.58086 23.2467 4.42132 23.1609C4.26177 23.075 4.08203 23.0338 3.90103 23.0416C3.74325 23.0336 3.58613 23.0671 3.44524 23.1385C3.30435 23.21 3.18456 23.317 3.09773 23.4489V23.1104H2.50098V25.8531H3.10344V24.3325C3.09042 24.2387 3.09833 24.1432 3.12662 24.0528C3.15491 23.9624 3.20286 23.8793 3.26705 23.8097C3.33123 23.74 3.41004 23.6854 3.49783 23.6498C3.58562 23.6143 3.6802 23.5986 3.77478 23.6039C4.17068 23.6039 4.37154 23.8621 4.37154 24.3268V25.8531H4.974V24.3325C4.96195 24.2389 4.97055 24.1437 4.9992 24.0538C5.02785 23.9638 5.07585 23.8812 5.13983 23.8117C5.20381 23.7423 5.28222 23.6877 5.36955 23.6518C5.45687 23.6159 5.551 23.5995 5.64533 23.6039C6.05268 23.6039 6.24777 23.8621 6.24777 24.3268V25.8531H6.85023ZM15.7668 23.1104H14.7914V22.2784H14.1889V23.1104H13.6323V23.6555H14.1889V24.9064C14.1889 25.5432 14.4356 25.922 15.1414 25.922C15.405 25.9228 15.6636 25.8492 15.8873 25.7096L15.7152 25.199C15.5551 25.2944 15.3735 25.3477 15.1873 25.3539C14.8889 25.3539 14.7914 25.1702 14.7914 24.8949V23.6555H15.7668V23.1104ZM20.8562 23.0416C20.7107 23.0373 20.5668 23.0723 20.4396 23.143C20.3123 23.2137 20.2065 23.3174 20.1333 23.4432V23.1104H19.5423V25.8531H20.139V24.3153C20.139 23.8621 20.3341 23.6096 20.7243 23.6096C20.8519 23.6079 20.9786 23.6312 21.0972 23.6785L21.2808 23.1161C21.1446 23.0674 21.001 23.0422 20.8562 23.0416ZM13.1619 23.3284C12.8241 23.1276 12.4357 23.028 12.043 23.0416C11.3487 23.0416 10.9012 23.3743 10.9012 23.9194C10.9012 24.367 11.2339 24.6424 11.8478 24.7285L12.129 24.7686C12.4561 24.8145 12.611 24.9006 12.611 25.0555C12.611 25.2678 12.3929 25.3883 11.9856 25.3883C11.6579 25.3978 11.3366 25.2967 11.0733 25.1014L10.7921 25.5662C11.1397 25.8089 11.556 25.9336 11.9798 25.922C12.7717 25.922 13.2307 25.549 13.2307 25.0268C13.2307 24.5448 12.8692 24.2924 12.2725 24.2063L11.9914 24.1661C11.7331 24.1317 11.5266 24.0801 11.5266 23.8965C11.5266 23.6957 11.7216 23.5752 12.0487 23.5752C12.349 23.5797 12.6433 23.6607 12.9036 23.8104L13.1619 23.3284ZM29.1474 23.0416C29.0019 23.0373 28.8579 23.0723 28.7307 23.143C28.6034 23.2137 28.4976 23.3174 28.4244 23.4432V23.1104H27.8334V25.8531H28.4301V24.3153C28.4301 23.8621 28.6252 23.6096 29.0154 23.6096C29.143 23.6078 29.2698 23.6312 29.3884 23.6785L29.572 23.1161C29.4357 23.0674 29.2921 23.0422 29.1474 23.0416ZM21.4587 24.4817C21.4508 24.6749 21.4834 24.8676 21.5544 25.0475C21.6254 25.2274 21.7333 25.3904 21.8711 25.526C22.009 25.6617 22.1736 25.767 22.3546 25.8352C22.5356 25.9034 22.7288 25.9329 22.9219 25.922C23.2801 25.94 23.6322 25.8233 23.9087 25.5949L23.6219 25.1129C23.4156 25.2701 23.164 25.3567 22.9046 25.3596C22.681 25.346 22.471 25.2476 22.3175 25.0845C22.1639 24.9214 22.0784 24.7058 22.0784 24.4817C22.0784 24.2577 22.1639 24.0421 22.3175 23.879C22.471 23.7158 22.681 23.6174 22.9046 23.6039C23.164 23.6068 23.4156 23.6933 23.6219 23.8506L23.9087 23.3686C23.6321 23.1402 23.2801 23.0236 22.9219 23.0416C22.7288 23.0306 22.5356 23.0601 22.3546 23.1283C22.1737 23.1965 22.009 23.3018 21.8712 23.4374C21.7334 23.5731 21.6255 23.7361 21.5544 23.9159C21.4834 24.0958 21.4508 24.2885 21.4587 24.4817ZM27.0473 24.4817V23.1104H26.4506V23.4432C26.3487 23.3119 26.2169 23.207 26.0662 23.1371C25.9155 23.0672 25.7502 23.0345 25.5842 23.0416C25.2144 23.0597 24.8658 23.2193 24.6105 23.4874C24.3552 23.7555 24.2129 24.1116 24.2129 24.4818C24.2129 24.852 24.3552 25.208 24.6105 25.4761C24.8658 25.7442 25.2144 25.9038 25.5842 25.922C25.7502 25.929 25.9155 25.8963 26.0662 25.8264C26.2169 25.7565 26.3487 25.6515 26.4506 25.5203V25.8531H27.0473V24.4817ZM24.8268 24.4817C24.836 24.3198 24.8925 24.1643 24.9891 24.0341C25.0857 23.9039 25.2183 23.8049 25.3706 23.7492C25.5228 23.6935 25.688 23.6836 25.8458 23.7207C26.0037 23.7577 26.1472 23.8402 26.2587 23.9579C26.3702 24.0755 26.4448 24.2232 26.4734 24.3828C26.5019 24.5424 26.4832 24.7068 26.4194 24.8559C26.3556 25.0049 26.2496 25.132 26.1145 25.2215C25.9793 25.311 25.8209 25.359 25.6588 25.3596C25.5452 25.3611 25.4325 25.3391 25.3278 25.295C25.2231 25.2508 25.1287 25.1854 25.0505 25.1029C24.9723 25.0204 24.9121 24.9226 24.8736 24.8157C24.8351 24.7088 24.8191 24.5951 24.8268 24.4817ZM17.6259 23.0416C17.2537 23.0612 16.9037 23.2241 16.6491 23.4962C16.3945 23.7683 16.2552 24.1285 16.2604 24.5011C16.2656 24.8737 16.4149 25.2298 16.6769 25.4947C16.939 25.7596 17.2935 25.9128 17.666 25.922C18.0754 25.9363 18.4757 25.7995 18.7906 25.5375L18.498 25.0957C18.2714 25.2773 17.9908 25.3782 17.7004 25.3826C17.5033 25.3992 17.3074 25.3384 17.1542 25.2131C17.0011 25.0877 16.9027 24.9078 16.8799 24.7112H18.9169C18.9226 24.6367 18.9283 24.5621 18.9283 24.4817C18.9226 23.6268 18.3947 23.0416 17.6259 23.0416ZM17.6144 23.5752C17.7946 23.5717 17.9689 23.6397 18.099 23.7645C18.2292 23.8893 18.3046 24.0605 18.3087 24.2408H16.8857C16.8962 24.0566 16.9783 23.8839 17.1144 23.7595C17.2506 23.6351 17.43 23.569 17.6144 23.5752ZM32.5843 24.4817V22.0088H31.9876V23.4432C31.8857 23.312 31.7539 23.207 31.6032 23.1371C31.4524 23.0672 31.2872 23.0345 31.1212 23.0416C30.7514 23.0597 30.4028 23.2193 30.1475 23.4874C29.8922 23.7555 29.7498 24.1116 29.7498 24.4818C29.7498 24.852 29.8922 25.208 30.1475 25.4761C30.4028 25.7442 30.7514 25.9038 31.1212 25.922C31.2872 25.929 31.4524 25.8963 31.6032 25.8264C31.7539 25.7565 31.8857 25.6515 31.9876 25.5203V25.8531H32.5843V24.4817ZM33.579 25.4556C33.6161 25.4554 33.6528 25.4627 33.687 25.477C33.7198 25.4907 33.7498 25.5106 33.7752 25.5355C33.8004 25.5603 33.8206 25.5898 33.8346 25.6223C33.849 25.6557 33.8564 25.6917 33.8564 25.7281C33.8564 25.7644 33.849 25.8004 33.8346 25.8338C33.8205 25.8662 33.8003 25.8955 33.7752 25.9203C33.7497 25.9452 33.7198 25.9652 33.687 25.9791C33.6529 25.9937 33.6161 26.0011 33.579 26.0008C33.5244 26.0014 33.4709 25.9858 33.4251 25.9561C33.3793 25.9264 33.3433 25.8839 33.3215 25.8338C33.3072 25.8004 33.2998 25.7644 33.2998 25.7281C33.2998 25.6917 33.3072 25.6557 33.3215 25.6223C33.3355 25.5899 33.3556 25.5604 33.3807 25.5355C33.406 25.5104 33.4361 25.4905 33.4692 25.477C33.504 25.4626 33.5413 25.4553 33.579 25.4556ZM33.579 25.9407C33.6073 25.9409 33.6353 25.9352 33.6613 25.924C33.6862 25.9132 33.7088 25.8978 33.728 25.8786C33.7677 25.8385 33.7899 25.7845 33.7899 25.7282C33.7899 25.6719 33.7677 25.6179 33.728 25.5779C33.7089 25.5587 33.6862 25.5434 33.6613 25.5328C33.6353 25.5218 33.6073 25.5162 33.579 25.5164C33.5503 25.5162 33.5218 25.5218 33.4952 25.5328C33.4699 25.5432 33.4468 25.5585 33.4274 25.5779C33.3878 25.6179 33.3655 25.6719 33.3655 25.7282C33.3655 25.7845 33.3878 25.8386 33.4274 25.8786C33.4469 25.8979 33.4699 25.9133 33.4952 25.924C33.5217 25.9352 33.5502 25.9409 33.579 25.9407ZM33.5951 25.6006C33.6219 25.5988 33.6485 25.6065 33.6703 25.6223C33.679 25.6295 33.6858 25.6385 33.6904 25.6488C33.695 25.659 33.6971 25.6702 33.6966 25.6815C33.697 25.6911 33.6952 25.7006 33.6916 25.7096C33.688 25.7185 33.6825 25.7265 33.6756 25.7332C33.659 25.7479 33.638 25.7568 33.6158 25.7583L33.6987 25.8538H33.6339L33.557 25.7589H33.5323V25.8538H33.4782V25.6006H33.5951ZM33.5323 25.6481V25.7155H33.5944C33.6064 25.7161 33.6182 25.7132 33.6285 25.7071C33.6327 25.7044 33.6361 25.7005 33.6383 25.696C33.6405 25.6915 33.6415 25.6865 33.6412 25.6815C33.6415 25.6765 33.6404 25.6716 33.6382 25.6672C33.636 25.6628 33.6327 25.6591 33.6285 25.6564C33.6182 25.6503 33.6064 25.6475 33.5944 25.6481H33.5323ZM30.3638 24.4817C30.3731 24.3199 30.4295 24.1643 30.5261 24.0341C30.6228 23.904 30.7554 23.805 30.9076 23.7493C31.0598 23.6936 31.225 23.6837 31.3829 23.7208C31.5407 23.7578 31.6842 23.8403 31.7957 23.958C31.9072 24.0756 31.9818 24.2233 32.0103 24.3829C32.0389 24.5425 32.0201 24.7069 31.9563 24.8559C31.8925 25.005 31.7865 25.1321 31.6514 25.2216C31.5162 25.3111 31.3578 25.359 31.1957 25.3596C31.0821 25.3611 30.9694 25.3391 30.8647 25.2949C30.76 25.2507 30.6656 25.1853 30.5875 25.1029C30.5093 25.0204 30.4491 24.9226 30.4106 24.8157C30.3721 24.7088 30.3562 24.5951 30.3638 24.4817ZM10.2126 24.4817V23.1104H9.61585V23.4432C9.514 23.3119 9.38219 23.207 9.23146 23.1371C9.08072 23.0672 8.91544 23.0345 8.74944 23.0416C8.37969 23.0597 8.03107 23.2193 7.77579 23.4874C7.52051 23.7555 7.37813 24.1116 7.37813 24.4818C7.37813 24.852 7.52051 25.208 7.77579 25.4761C8.03107 25.7442 8.37969 25.9038 8.74944 25.922C8.91544 25.929 9.08072 25.8963 9.23146 25.8264C9.38219 25.7565 9.514 25.6515 9.61585 25.5203V25.8531H10.2126V24.4817ZM7.99209 24.4817C8.00136 24.3199 8.0578 24.1643 8.15443 24.0341C8.25106 23.904 8.38367 23.805 8.53591 23.7493C8.68815 23.6936 8.85335 23.6837 9.01115 23.7208C9.16896 23.7578 9.31246 23.8403 9.42396 23.958C9.53546 24.0756 9.61009 24.2233 9.63864 24.3829C9.66719 24.5425 9.64841 24.7069 9.58463 24.8559C9.52085 25.005 9.41484 25.1321 9.27969 25.2216C9.14453 25.3111 8.98615 25.359 8.82405 25.3596C8.71043 25.3611 8.59772 25.3391 8.49303 25.2949C8.38834 25.2507 8.29395 25.1853 8.21579 25.1029C8.13762 25.0204 8.0774 24.9226 8.0389 24.8157C8.0004 24.7088 7.98446 24.5951 7.99209 24.4817Z" fill="#231F20"/>
<path d="M22.0002 2.2085H12.9619V18.4505H22.0002V2.2085Z" fill="#FF5F00"/>
<path d="M13.538 10.3295C13.5366 8.76524 13.8911 7.2212 14.5746 5.81421C15.2581 4.40723 16.2528 3.17419 17.4833 2.20844C15.9595 1.01069 14.1294 0.265833 12.2023 0.0589936C10.2752 -0.147846 8.32875 0.191683 6.58547 1.03877C4.84219 1.88586 3.3724 3.20633 2.34411 4.84926C1.31582 6.49218 0.770508 8.39127 0.770508 10.3295C0.770508 12.2677 1.31582 14.1668 2.34411 15.8097C3.3724 17.4526 4.84219 18.7731 6.58547 19.6202C8.32875 20.4673 10.2752 20.8068 12.2023 20.5999C14.1294 20.3931 15.9595 19.6482 17.4833 18.4505C16.2528 17.4847 15.2581 16.2517 14.5746 14.8447C13.8911 13.4377 13.5366 11.8937 13.538 10.3295Z" fill="#EB001B"/>
<path d="M34.1947 10.3295C34.1948 12.2676 33.6495 14.1667 32.6213 15.8096C31.593 17.4526 30.1233 18.773 28.3801 19.6201C26.6368 20.4672 24.6904 20.8068 22.7633 20.5999C20.8362 20.3931 19.0062 19.6482 17.4824 18.4505C18.7118 17.4838 19.7057 16.2505 20.3891 14.8438C21.0726 13.437 21.4276 11.8934 21.4276 10.3295C21.4276 8.76549 21.0726 7.22193 20.3891 5.81517C19.7057 4.4084 18.7118 3.17516 17.4824 2.20844C19.0062 1.01069 20.8362 0.265829 22.7633 0.0589918C24.6904 -0.147845 26.6368 0.19169 28.3801 1.03879C30.1233 1.88589 31.593 3.20636 32.6213 4.84929C33.6495 6.49222 34.1948 8.3913 34.1947 10.3295Z" fill="#F79E1B"/>
<path d="M33.2084 16.7295V16.397H33.3425V16.3293H33.001V16.397H33.1351V16.7295H33.2084ZM33.8713 16.7295V16.3286H33.7666L33.6463 16.6044L33.5258 16.3286H33.4211V16.7295H33.495V16.4271L33.6079 16.6879H33.6846L33.7975 16.4265V16.7295H33.8713Z" fill="#F79E1B"/>
</svg>
