<svg width="24" height="25" viewBox="0 0 24 25" fill="none" xmlns="http://www.w3.org/2000/svg">
<path d="M21.5999 17.0599V18.0599C22.1522 18.0599 22.5999 17.6122 22.5999 17.0599H21.5999ZM21.5999 11.7799H22.5999C22.5999 11.2276 22.1522 10.7799 21.5999 10.7799V11.7799ZM7.13914 6.61872C6.67457 6.91737 6.54007 7.53608 6.83872 8.00065C7.13738 8.46522 7.75609 8.59972 8.22066 8.30107L7.13914 6.61872ZM14.3999 3.13989L15.1893 2.52595C14.8715 2.11741 14.2945 2.01883 13.8591 2.29871L14.3999 3.13989ZM16.9705 8.07383C17.3096 8.50978 17.9379 8.58832 18.3738 8.24925C18.8098 7.91018 18.8883 7.2819 18.5493 6.84595L16.9705 8.07383ZM21.5999 16.0599H18.4799V18.0599H21.5999V16.0599ZM18.4799 12.7799H21.5999V10.7799H18.4799V12.7799ZM20.5999 11.7799V17.0599H22.5999V11.7799H20.5999ZM16.8399 14.4199C16.8399 13.5141 17.5742 12.7799 18.4799 12.7799V10.7799C16.4696 10.7799 14.8399 12.4096 14.8399 14.4199H16.8399ZM18.4799 16.0599C17.5742 16.0599 16.8399 15.3256 16.8399 14.4199H14.8399C14.8399 16.4302 16.4696 18.0599 18.4799 18.0599V16.0599ZM8.22066 8.30107L14.9407 3.98107L13.8591 2.29871L7.13914 6.61872L8.22066 8.30107ZM13.6105 3.75383L16.9705 8.07383L18.5493 6.84595L15.1893 2.52595L13.6105 3.75383ZM3.3599 8.45989H19.6799V6.45989H3.3599V8.45989ZM19.6799 20.8599H3.3599V22.8599H19.6799V20.8599ZM3.3999 20.8999V8.41989H1.3999V20.8999H3.3999ZM3.3599 20.8599C3.38199 20.8599 3.3999 20.8778 3.3999 20.8999H1.3999C1.3999 21.9824 2.27742 22.8599 3.3599 22.8599V20.8599ZM19.6399 20.8999C19.6399 20.8778 19.6578 20.8599 19.6799 20.8599V22.8599C20.7624 22.8599 21.6399 21.9824 21.6399 20.8999H19.6399ZM19.6799 8.45989C19.6578 8.45989 19.6399 8.44198 19.6399 8.41989H21.6399C21.6399 7.33742 20.7624 6.45989 19.6799 6.45989V8.45989ZM3.3599 6.45989C2.27742 6.45989 1.3999 7.33742 1.3999 8.41989H3.3999C3.3999 8.44198 3.38199 8.45989 3.3599 8.45989V6.45989ZM19.6399 17.7799V20.8999H21.6399V17.7799H19.6399ZM19.6399 8.41989V10.9399H21.6399V8.41989H19.6399Z" fill="black"/>
</svg>
