<svg width="382" height="932" viewBox="0 0 382 932" fill="none" xmlns="http://www.w3.org/2000/svg">
<g opacity="0.6" clip-path="url(#clip0_89_75)">
<path d="M192.061 0H194.361C195.506 16.4957 197.362 32.8576 202.936 47.2236C220.502 92.5215 274.989 86.5213 272.579 160.322C268.413 287.697 134.528 267.968 80.8342 287.601L68.5946 293.034C85.5166 299.837 102.964 304.492 120.362 307.451C166.808 315.338 219.818 313.145 263.588 341.373C311.903 372.535 313.528 444.645 264.895 477.363C208.164 515.532 137.797 500.018 78.4115 522.814L68.5906 527.226C93.6967 537.135 119.796 542.536 145.668 545.246C197.252 550.647 248.515 551.635 299.57 566.052C323.886 572.919 367.413 585.87 375.389 628.675C387.576 694.071 327.51 706.747 299.57 714.227C268.804 722.465 234.785 724.308 204.895 734.108C195.615 737.15 184.325 746.083 176.478 754.462C140.908 792.427 126.934 867.834 123.803 931.993H72.418C76.2739 807.89 117.182 675.465 202.521 653.523C223.877 648.033 245.73 645.438 267.212 641.338C267.33 638.488 267.457 639.228 266.072 638.953C227.582 631.378 188.649 627.801 149.874 625.741V618.536L149.108 625.741C127.264 623.044 105.374 620.443 83.778 614.551C52.0106 605.885 -4.08933 586.552 0.418044 519.594C4.34317 461.269 61.689 444.62 91.331 437.376C132.427 427.333 174.341 428.845 215.221 416.404C220.803 414.708 226.3 412.036 231.931 410.742C232.114 409.014 230.6 409.116 229.797 408.708C168.486 377.751 82.1697 403.785 25.117 352.105C1.03287 330.291 -9.54541 286.536 10.6665 251.001C38.4762 202.106 119.234 199.211 158.685 193.352C179.072 190.323 203.791 183.921 219.651 162.738C204.781 149.947 189.064 139.286 176.316 121.336C154.772 91.004 143.538 45.1385 143.742 0H192.057L192.061 0Z" fill="#FFF879"/>
</g>
<defs>
<clipPath id="clip0_89_75">
<rect width="382" height="932" fill="white"/>
</clipPath>
</defs>
</svg>
