<svg width="28" height="29" viewBox="0 0 28 29" fill="none" xmlns="http://www.w3.org/2000/svg">
<path d="M4.78986 19.8228L3.95987 19.2651L3.95987 19.2651L4.78986 19.8228ZM6.14666 15.4742L5.14666 15.4634V15.4742H6.14666ZM6.17514 12.845L7.17514 12.8558V12.845H6.17514ZM23.2174 19.8439L24.058 19.3022L24.058 19.3022L23.2174 19.8439ZM21.9117 15.4742L20.9117 15.4628V15.4742H21.9117ZM21.9402 12.9753L22.9402 12.9866V12.9753H21.9402ZM10.8889 24C10.3366 24 9.88891 24.4477 9.88891 25C9.88891 25.5523 10.3366 26 10.8889 26V24ZM17.1111 26C17.6634 26 18.1111 25.5523 18.1111 25C18.1111 24.4477 17.6634 24 17.1111 24V26ZM5.61985 20.3806C6.39073 19.2335 7.14666 17.5356 7.14666 15.4742H5.14666C5.14666 17.0418 4.56982 18.3574 3.95987 19.2651L5.61985 20.3806ZM7.14661 15.485L7.17508 12.8558L5.1752 12.8341L5.14672 15.4634L7.14661 15.485ZM24.058 19.3022C23.473 18.3945 22.9117 17.065 22.9117 15.4742H20.9117C20.9117 17.5373 21.6372 19.2379 22.3769 20.3856L24.058 19.3022ZM22.9116 15.4856L22.9401 12.9866L20.9402 12.9639L20.9117 15.4628L22.9116 15.4856ZM22.9402 12.9753C22.9402 7.58477 19.0492 3 14 3V5C17.7213 5 20.9402 8.45195 20.9402 12.9753H22.9402ZM22.7422 22.0625C23.5793 22.0625 24.0392 21.4126 24.2051 20.9721C24.3796 20.5088 24.4151 19.8564 24.058 19.3022L22.3769 20.3856C22.3372 20.3241 22.3338 20.2788 22.3334 20.272C22.3332 20.2668 22.3336 20.2654 22.3334 20.2668C22.3332 20.2682 22.3329 20.2687 22.3334 20.2672C22.3339 20.2659 22.3368 20.2585 22.3449 20.2461C22.3529 20.2339 22.3692 20.212 22.398 20.1865C22.46 20.1315 22.5803 20.0625 22.7422 20.0625V22.0625ZM7.17514 12.845C7.17514 8.39362 10.3424 5 14 5V3C9.01452 3 5.17514 7.52644 5.17514 12.845H7.17514ZM5.25893 20.0625C5.42449 20.0625 5.546 20.1342 5.60695 20.1893C5.63519 20.2148 5.65077 20.2364 5.65802 20.2477C5.66542 20.2593 5.66765 20.2656 5.66767 20.2656C5.66776 20.2659 5.66719 20.2642 5.66683 20.2617C5.66646 20.2593 5.66686 20.2599 5.66658 20.2645C5.66624 20.2701 5.66254 20.3171 5.61985 20.3806L3.95987 19.2651C3.58593 19.8215 3.61864 20.4852 3.78905 20.9517C3.95042 21.3936 4.40856 22.0625 5.25893 22.0625V20.0625ZM22.7422 20.0625H5.25893V22.0625H22.7422V20.0625ZM10.8889 26H17.1111V24H10.8889V26Z" fill="black"/>
<ellipse cx="19.5715" cy="5.92857" rx="3.42857" ry="3.42857" fill="#FFEFE0"/>
<circle cx="19.5714" cy="5.92854" r="2.28571" fill="#DC1D27"/>
</svg>
