<svg width="63" height="20" viewBox="0 0 63 20" fill="none" xmlns="http://www.w3.org/2000/svg">
<path d="M30.8586 0.353266L26.7212 19.6963H21.7167L25.8545 0.353266H30.8586ZM51.9118 12.8433L54.5457 5.5796L56.0614 12.8433H51.9118ZM57.4971 19.6963H62.1244L58.0818 0.353266H53.8135C52.8516 0.353266 52.0406 0.911009 51.6817 1.77112L44.173 19.6963H49.4285L50.4718 16.8076H56.8911L57.4971 19.6963ZM44.4336 13.3815C44.4554 8.27652 37.3766 7.99374 37.424 5.71273C37.4392 5.01969 38.1005 4.2814 39.5458 4.09258C40.2623 4.00035 42.2396 3.92552 44.4811 4.95834L45.3577 0.854887C44.1539 0.419395 42.6047 0 40.6769 0C35.7299 0 32.2499 2.62774 32.222 6.3936C32.1903 9.1784 34.7079 10.7311 36.6009 11.6587C38.5525 12.6066 39.2064 13.2144 39.1969 14.0615C39.1834 15.3592 37.6407 15.934 36.2041 15.9557C33.6869 15.9949 32.2277 15.2753 31.0648 14.7332L30.1564 18.9737C31.3275 19.5097 33.4854 19.9761 35.7199 20C40.9793 20 44.418 17.4031 44.4336 13.3815ZM23.708 0.353266L15.5998 19.6963H10.3108L6.32048 4.25921C6.07859 3.30991 5.86759 2.961 5.1319 2.55987C3.92854 1.90642 1.94207 1.29516 0.195312 0.914925L0.313649 0.353266H8.82858C9.91318 0.353266 10.889 1.07502 11.1374 2.32451L13.2453 13.5185L18.4507 0.353266H23.708Z" fill="#1434CB"/>
</svg>
